<svg width="24.000000" height="24.000000" viewBox="0 0 24 24" fill="none" xmlns="http://www.w3.org/2000/svg" xmlns:xlink="http://www.w3.org/1999/xlink">
	<desc>
			Created with Pixso.
	</desc>
	<defs/>
	<path id="Vector" d="M15.58 12.26C12.75 12.26 10.46 9.96 10.46 7.13C10.46 4.29 12.75 2 15.58 2C18.42 2 20.71 4.29 20.71 7.13C20.71 9.96 18.42 12.26 15.58 12.26Z" stroke="#5C7184" stroke-opacity="1.000000" stroke-width="1.000000"/>
	<path id="Vector" d="M6.36 19.44C4.65 19.44 3.28 18.06 3.28 16.36C3.28 14.65 4.65 13.28 6.36 13.28C8.06 13.28 9.44 14.65 9.44 16.36C9.44 18.06 8.06 19.44 6.36 19.44Z" stroke="#5C7184" stroke-opacity="1.000000" stroke-width="1.000000"/>
	<path id="Vector" d="M16.62 21.99C15.2 21.99 14.06 20.85 14.06 19.43C14.06 18.02 15.2 16.87 16.62 16.87C18.03 16.87 19.18 18.02 19.18 19.43C19.18 20.85 18.03 21.99 16.62 21.99Z" stroke="#5C7184" stroke-opacity="1.000000" stroke-width="1.000000"/>
	<g opacity="0.000000"/>
	<g opacity="0.000000"/>
</svg>
